# xmcd CD database file
#
# Track frame offsets:
#	150
#	21541
#	65390
#	89565
#	116762
#	161269
#	183401
#	191911
#	225457
#	243669
#
# Disc length: 3495 seconds
#
# Revision: 2
# Processed by: cddbd v1.5.2PL0 Copyright (c) Steve Scherf et al.
# Submitted via: CDex 1.51
#
DISCID=880da50a
DTITLE=Lurrie Bell - Cuttin' Heads
DYEAR=2001
DGENRE=Blues
TTITLE0=I've Got A Watch On You
TTITLE1=Man And The Blues
TTITLE2=One Day
TTITLE3=I'll Be Your 44
TTITLE4=Leaning Tree
TTITLE5=Call Me On The Phone
TTITLE6=Smoke Stack Lightning
TTITLE7=I'll Play The Blues For You
TTITLE8=I Ain't Nobody
TTITLE9=It's 4:59 In The Morning
EXTD=YEAR: 2001
EXTT0=
EXTT1=
EXTT2=
EXTT3=
EXTT4=
EXTT5=
EXTT6=
EXTT7=
EXTT8=
EXTT9=
PLAYORDER=
